<svg width="20" height="20" viewBox="0 0 20 20" fill="none" xmlns="http://www.w3.org/2000/svg">
<path d="M9.59989 0C4.29835 0 0 4.4775 0 10C0 15.5225 4.29835 20 9.59989 20C14.9014 20 19.1998 15.5225 19.1998 10C19.1998 8.18385 18.7278 6.48595 17.9154 5.0179L8.91709 14.3896C8.76749 14.5455 8.56427 14.6338 8.35147 14.6338C8.13947 14.6338 7.93545 14.5463 7.78585 14.3896L4.22339 10.6787C3.91059 10.3529 3.91059 9.82616 4.22339 9.50033C4.53619 9.17449 5.04183 9.17449 5.35463 9.50033L8.35147 12.6221L16.992 3.62142C15.2312 1.40892 12.5743 0 9.59989 0ZM16.992 3.62142C17.3373 4.05523 17.6428 4.52504 17.9154 5.01628L19.7654 3.08919C20.0782 2.76253 20.0782 2.23664 19.7654 1.91081C19.4526 1.58497 18.947 1.58497 18.6342 1.91081L16.992 3.62142Z" fill="#E9225B"/>
</svg>
